<?xml version="1.0" encoding="UTF-8" standalone="no"?>
<!-- Created with Inkscape (http://www.inkscape.org/) -->

<svg
   xmlns:osb="http://www.openswatchbook.org/uri/2009/osb"
   xmlns:dc="http://purl.org/dc/elements/1.1/"
   xmlns:cc="http://creativecommons.org/ns#"
   xmlns:rdf="http://www.w3.org/1999/02/22-rdf-syntax-ns#"
   xmlns:svg="http://www.w3.org/2000/svg"
   xmlns="http://www.w3.org/2000/svg"
   xmlns:sodipodi="http://sodipodi.sourceforge.net/DTD/sodipodi-0.dtd"
   xmlns:inkscape="http://www.inkscape.org/namespaces/inkscape"
   id="svg2"
   version="1.1"
   inkscape:version="0.91 r13725"
   width="158.57434"
   height="156.49231"
   viewBox="0 0 158.57434 156.49231"
   sodipodi:docname="ktn-speaker.svg">
  <metadata
     id="metadata8">
    <rdf:RDF>
      <cc:Work
         rdf:about="">
        <dc:format>image/svg+xml</dc:format>
        <dc:type
           rdf:resource="http://purl.org/dc/dcmitype/StillImage" />
        <dc:title></dc:title>
      </cc:Work>
    </rdf:RDF>
  </metadata>
  <defs
     id="defs6">
    <linearGradient
       id="linearGradient4168"
       osb:paint="solid">
      <stop
         style="stop-color:#000000;stop-opacity:1;"
         offset="0"
         id="stop4170" />
    </linearGradient>
    <linearGradient
       id="linearGradient4159"
       osb:paint="solid">
      <stop
         style="stop-color:#000000;stop-opacity:1;"
         offset="0"
         id="stop4161" />
    </linearGradient>
    <linearGradient
       id="linearGradient4146"
       osb:paint="solid">
      <stop
         style="stop-color:#000000;stop-opacity:1;"
         offset="0"
         id="stop4148" />
    </linearGradient>
  </defs>
  <sodipodi:namedview
     pagecolor="#000000"
     bordercolor="#666666"
     borderopacity="1"
     objecttolerance="10"
     gridtolerance="10"
     guidetolerance="10"
     inkscape:pageopacity="0"
     inkscape:pageshadow="2"
     inkscape:window-width="1920"
     inkscape:window-height="1015"
     id="namedview4"
     showgrid="false"
     inkscape:snap-global="true"
     inkscape:zoom="2.5428907"
     inkscape:cx="163.47927"
     inkscape:cy="143.24377"
     inkscape:window-x="0"
     inkscape:window-y="0"
     inkscape:window-maximized="1"
     inkscape:current-layer="layer1"
     showborder="true"
     fit-margin-top="0.5"
     fit-margin-left="0.5"
     fit-margin-right="0.5"
     fit-margin-bottom="0.5" />
  <g
     inkscape:groupmode="layer"
     id="layer1"
     inkscape:label="Icon"
     style="display:inline;opacity:1"
     transform="translate(0.5,-894.00769)">
    <path
       style="fill:#ffffff;fill-opacity:1;fill-rule:evenodd;stroke:none;stroke-width:0.40000001;stroke-linecap:butt;stroke-linejoin:miter;stroke-miterlimit:4;stroke-dasharray:none;stroke-opacity:1"
       d="m 98.702466,899.15605 c -1.33633,-0.0513 -2.35056,0.18383 -2.91797,0.70117 -2.363609,2.15505 -1.73719,2.36434 -6.255859,3.82422 -4.49828,1.4533 -48.38476,10.14843 -48.38476,10.14843 -7.50795,1.94653 -10.35743,-0.0684 -10.35743,-0.0684 l -7.71679,-4.72851 c 0,0 0.13844,3.1297 0.97265,7.30078 0.83422,4.17108 6.25732,11.95617 9.80274,15.64063 3.85619,4.00742 8.06445,1.80664 8.06445,1.80664 l 19.04688,-4.10157 3.19921,3.19922 c 0,0 1.25044,7.43739 -2.64257,17.16992 -3.89301,9.73252 -13.06939,25.65288 -24.60938,36.63672 -11.54439,10.98803 -23.77539,16.8926 -23.77539,16.8926 0,0 14.87771,0.9741 16.82422,0.418 1.9465,-0.5562 11.92122,-5.0069 16.64844,-8.34379 4.72723,-3.33686 17.23437,-15.31837 17.23437,-15.31837 0,0 14.13878,17.1758 19.81055,21.60746 2.24795,1.7564 3.50811,6.1094 7.12305,8.334 3.614929,2.2245 8.913359,-1.5198 11.416013,-2.9102 1.53736,-0.8541 10.71106,-10.28927 12.05469,-12.47266 1.1123,-1.80747 3.72222,-9.94508 7.61523,-27.18555 3.89301,-17.24047 2.78152,-32.67387 4.17188,-34.89844 1.39036,-2.22458 2.04051,-2.21993 1.94531,-9.73242 -0.0814,-6.42649 -5.59969,-10.55324 -11.82617,-15.67774 -6.51686,-5.36349 -13.43436,-8.08818 -17.443364,-8.24218 z m 3.958984,20.88476 c 3.22813,-0.23348 3.40528,3.84414 3.34375,6.15235 -0.12452,11.20922 -0.28407,22.52695 -2.5332,33.55078 -1.53322,5.62574 -3.24973,11.23888 -5.564454,16.59961 -1.81593,4.07128 -4.870399,7.92799 -9.123049,9.56836 -3.17795,0.59497 -6.18955,-1.26677 -8.9043,-2.67188 -3.97462,-2.42095 -8.13362,-5.12023 -10.65039,-9.13672 5.91876,-8.76896 10.36607,-18.4236 14.12305,-28.28711 1.38799,-3.31695 2.7459,-6.75408 2.60547,-10.41797 0.54953,-2.77532 -0.21025,-5.80523 -2.89258,-7.19726 -1.31245,-1.11286 -3.89572,-2.23658 -4.56641,-3.02149 8.05342,-1.70884 16.054079,-3.71556 24.162113,-5.13867 z"
       id="path3339"
       inkscape:connector-curvature="0" />
  </g>
  <g
     inkscape:groupmode="layer"
     id="layer2"
     inkscape:label="KATANA"
     style="display:inline;opacity:1"
     transform="translate(0.5,-894.00769)">
    <path
       style="fill:#ffffff;fill-opacity:1;fill-rule:evenodd;stroke:none;stroke-width:0.1;stroke-linecap:butt;stroke-linejoin:miter;stroke-miterlimit:4;stroke-dasharray:none;stroke-opacity:1"
       d="m 6.2115073,1016.8907 c 1.08331,-1.3487 2.22428,-2.0913 3.53873,-3.0732 1.2608397,-0.9418 2.7790197,-2.0489 2.8916797,1.6481 0.28691,9.4156 -0.39427,12.7973 -0.39427,12.7973 0,0 11.45463,-11.3037 12.8857,-12.343 1.35935,-0.9872 2.61784,-1.3005 3.24,-0.4424 0.75246,1.0378 0.0745,2.1754 0.0745,2.1754 0,0 1.54482,1.8089 0.57157,4.1726 -0.97325,2.3636 -2.33133,2.9491 -5.67517,5.4939 -3.51619,2.676 -6.24964,4.0166 -6.24964,4.0166 0,0 4.84241,5.5004 6.51084,5.8132 1.2599,0.2363 2.74549,1.986 3.03246,4.6061 0.26564,2.4254 -2.75246,4.2529 -4.47342,2.3527 -1.66844,-1.8422 -3.77886,-3.7912 -4.09169,-4.834 -0.44667,-1.4889 -0.37988,-1.7206 -1.49217,-3.177 -0.95476,-1.2501 -2.41276,-3.7063 -3.80312,-3.1501 -1.39036,0.5561 -2.19374,0.6614 -2.33277,3.025 -0.13904,2.3637 0.51541,6.6261 -1.1530197,8.0164 -1.66843,1.3904 -2.76734,1.7871 -4.57481,0.8139 -1.8074696,-0.9733 -3.2325896,-2.1551 -2.5374096,-3.4064 0.69518,-1.2513 2.0855396,-1.5989 2.0855396,-1.5989 0,0 -0.36693,-5.6998 0.81488,-8.411 0,-1.8591 -0.31855,-9.7259 0.0193,-12.0621 0.13278,-0.9181 0.59307,-1.7868 1.11224,-2.4331 z"
       id="path4157"
       inkscape:connector-curvature="0"
       sodipodi:nodetypes="csscsscsscssssssssssccssc" />
    <path
       style="fill:#ffffff;fill-opacity:1;fill-rule:evenodd;stroke:none;stroke-width:0.2;stroke-linecap:butt;stroke-linejoin:miter;stroke-miterlimit:4;stroke-dasharray:none;stroke-opacity:1"
       d="m 39.835277,1013.4412 c -0.32978,-0.011 -0.75076,0.01 -1.29883,0.078 -1.66843,0.2086 -2.07966,4.151 -4.40234,8.002 -3.38839,5.6179 -2.83174,8.339 -3.31836,8.2695 -3.14109,-0.02 -4.45448,-0.045 -4.16797,1.6934 0.28359,1.7202 3.4519,1.6547 3.17383,2.2109 -0.27808,0.5561 -0.97259,8.0831 -0.625,9.8906 0.34759,1.8075 2.49361,2.8149 3.81445,3.0235 1.66843,-0.1391 3.63057,-2.9236 4.11719,-3.4102 0.48666,-0.4866 0.33166,-8.895 0.4707,-9.4512 0.13904,-0.5561 4.79574,-0.7643 4.86524,-0.1386 0.0695,0.6256 0.14178,6.4854 0.80078,8.3805 0.83072,2.3889 2.958,7.9765 3.88026,2.0945 0.48927,-3.1206 0.10543,-11.0913 0.10543,-11.0913 0,0 1.36702,-0.2181 5.39908,-0.4267 3.51595,-0.8968 5.50232,-1.5907 4.0664,-2.0156 -3.40638,-1.0081 -3.78883,-2.2235 -4.62305,-2.293 -0.83421,-0.069 -4.9707,0 -4.9707,0 0,0 0.0692,-2.7466 0.13867,-5.5273 0.0695,-2.7808 0.62736,-4.6571 -1.38867,-6.7774 -1.77302,-1.8647 -3.89308,-1.6692 -4.44922,-1.9473 -0.4171,-0.2085 -0.59854,-0.5313 -1.58789,-0.5644 z m 0.92578,7.5508 c 1.12142,0.042 1.87729,7.9598 1.56446,8.0293 -0.86898,0.3476 -4.83008,0.209 -4.83008,0.209 -0.17381,-0.3824 2.35316,-8.3211 3.26562,-8.2383 z"
       id="path4166"
       inkscape:connector-curvature="0"
       sodipodi:nodetypes="ccscscsccssssccssccsccccccc" />
    <path
       style="display:inline;opacity:1;fill:#ffffff;fill-opacity:1;fill-rule:evenodd;stroke:none;stroke-width:0.2;stroke-linecap:butt;stroke-linejoin:miter;stroke-miterlimit:4;stroke-dasharray:none;stroke-opacity:1"
       d="m 82.218757,1013.5812 c -0.32978,-0.011 -0.75076,0.01 -1.29883,0.078 -1.66843,0.2086 -2.07965,4.151 -4.40233,8.002 -3.38839,5.6179 -2.83174,8.339 -3.31836,8.2695 -3.14109,-0.02 -4.45448,-0.045 -4.16797,1.6934 0.28359,1.7203 3.4519,1.6547 3.17383,2.2109 -0.27808,0.5561 -0.97259,8.0832 -0.625,9.8906 0.34759,1.8075 2.49361,2.8149 3.81445,3.0235 1.66843,-0.1391 3.63056,-2.9236 4.11718,-3.4102 0.48666,-0.4866 0.33166,-8.895 0.4707,-9.4512 0.13904,-0.5561 4.79574,-0.7643 4.86524,-0.1386 0.0695,0.6256 0.0723,5.5816 0.73126,7.4767 0.83072,2.389 2.92324,8.359 3.8455,2.4769 0.48927,-3.1205 0.20971,-10.8156 0.20971,-10.8156 0,0 -1.48407,-0.021 2.54799,-0.2302 3.893049,-0.504 4.960439,-0.893 2.759029,-1.8016 -2.780839,-1.1477 -2.235669,-1.5695 -3.000369,-1.778 -0.80761,-0.2203 -2.43492,-0.6798 -2.43492,-0.6798 0,0 0.0692,-2.7466 0.13867,-5.5273 0.0695,-2.7808 0.62736,-4.6571 -1.38867,-6.7774 -1.77302,-1.8647 -3.89308,-1.6692 -4.44922,-1.9472 -0.4171,-0.2086 -0.59854,-0.5313 -1.58789,-0.5645 z m 0.92578,7.5508 c 1.02084,-0.2357 1.87729,7.9598 1.56446,8.0293 -0.86898,0.3476 -4.83008,0.209 -4.83008,0.209 -0.17381,-0.3823 2.35316,-8.3211 3.26562,-8.2383 z"
       id="path4166-3"
       inkscape:connector-curvature="0"
       sodipodi:nodetypes="ccscscsccssssccssccsccccccc" />
    <path
       style="fill:#ffffff;fill-opacity:1;fill-rule:evenodd;stroke:none;stroke-width:0.2;stroke-linecap:butt;stroke-linejoin:miter;stroke-miterlimit:4;stroke-dasharray:none;stroke-opacity:1"
       d="m 56.017467,1041.0535 c 0,-1.573 0.17205,-3.0477 1.2535,-4.1291 1.08144,-1.0815 1.79422,-1.6222 2.06458,-3.2444 0.13155,-0.7893 0.87144,-9.2056 0.17975,-10.3288 -0.34409,-0.3933 -2.62072,0.3609 -3.84963,0.3118 -1.22892,-0.049 -6.19374,-2.5095 -6.29206,-3.5418 -0.0983,-1.0323 3.44749,-3.363 4.08844,-3.7562 1.84329,-1.1308 19.11946,-1.1594 20.84694,0.3331 1.03229,1.1798 -0.80005,5.1276 -1.65199,5.2335 -2.4897,0.3093 -6.48868,0.3763 -6.63615,0.6713 -0.14747,0.2949 -0.86024,8.8896 -0.98313,13.4366 -0.0876,3.2432 0.0737,8.922 -1.79422,9.7085 -1.86795,0.7865 -5.70217,0.025 -6.48868,-1.9417 -0.78651,-1.9663 -0.73735,-2.7528 -0.73735,-2.7528 z"
       id="path4200"
       inkscape:connector-curvature="0"
       sodipodi:nodetypes="csscccscscssscc" />
    <path
       style="display:inline;opacity:1;fill:#ffffff;fill-opacity:1;fill-rule:evenodd;stroke:none;stroke-width:0.2;stroke-linecap:butt;stroke-linejoin:miter;stroke-miterlimit:4;stroke-dasharray:none;stroke-opacity:1"
       d="m 132.02684,1013.5117 c -0.32978,-0.011 -0.75076,0.01 -1.29883,0.078 -1.66843,0.2085 -2.07966,4.151 -4.40234,8.0019 -3.38839,5.6179 -2.83174,8.3391 -3.31836,8.2696 -3.14109,-0.02 -4.45448,-0.045 -4.16797,1.6933 0.28359,1.7203 3.4519,1.6548 3.17383,2.211 -0.27808,0.5561 -0.97259,8.0831 -0.625,9.8906 0.34759,1.8075 2.49361,2.8149 3.81445,3.0234 1.66843,-0.139 3.63057,-2.9235 4.11719,-3.4101 0.48666,-0.4866 0.33166,-8.895 0.4707,-9.4512 0.13904,-0.5561 4.79574,-0.7643 4.86524,-0.1387 0.0695,0.6257 0.48588,6.5838 1.14488,8.4789 0.83072,2.3889 2.56474,5.4696 3.487,-0.4125 0.48927,-3.1205 0.0562,-9.3707 0.0562,-9.3707 0,0 1.66196,0.175 5.69402,-0.034 3.23075,-0.096 5.40569,-0.2374 7.09341,-0.2645 5.90054,-0.094 3.40093,-0.8258 1.41996,-1.2164 -1.03201,-0.2035 -1.32641,-0.6133 -2.70494,-0.7084 -1.64413,-0.1134 -3.2116,-0.2744 -4.72173,-0.2742 -1.17374,10e-5 -1.20973,-1.592 -1.7501,-1.6053 -0.83684,-0.021 -5.06058,0.055 -5.06058,0.055 0,0 0.0692,-2.7466 0.13867,-5.5274 0.0695,-2.7807 0.62736,-4.657 -1.38867,-6.7773 -1.77302,-1.8647 -3.89308,-1.6692 -4.44922,-1.9473 -0.4171,-0.2085 -0.59854,-0.5313 -1.58789,-0.5644 z m 0.92578,7.5508 c 1.12142,0.042 1.87729,7.9598 1.56446,8.0293 -0.86898,0.3476 -4.83008,0.209 -4.83008,0.209 -0.17381,-0.3824 2.35316,-8.3212 3.26562,-8.2383 z"
       id="path4166-6"
       inkscape:connector-curvature="0"
       sodipodi:nodetypes="ccscscsccssssccsssssccsccccccc" />
    <path
       style="fill:#ffffff;fill-opacity:1;fill-rule:evenodd;stroke:none;stroke-width:0.30000001;stroke-linecap:butt;stroke-linejoin:miter;stroke-miterlimit:4;stroke-dasharray:none;stroke-opacity:1"
       d="m 99.539436,1048 c -0.69518,-0.139 -3.12832,-0.8342 -3.33687,-1.8075 -0.20855,-0.9732 0.20855,-3.0588 -0.7647,-3.6844 -0.97325,-0.6257 -2.572159,-1.3904 -2.433129,-2.4331 0.13904,-1.0428 1.598919,-2.6417 1.598919,-3.0588 0,-0.4171 -0.55615,-1.2514 0,-1.8075 0.55614,-0.5561 2.08554,-1.3904 2.29409,-1.8075 0.10945,-0.2189 0.7622,-3.2897 0.82086,-6.2592 0.0531,-2.6888 -0.49596,-5.2945 -0.26471,-5.6249 0.48662,-0.6951 5.251254,-6.5964 7.009394,-6.5143 1.1267,0.053 2.63022,1.2192 3.13192,4.6238 0.36598,2.4836 2.10392,4.3824 2.21253,4.9255 0.20855,1.0428 1.20217,7.7368 1.54976,7.7368 0.83916,0 5.76999,-19.8652 7.43842,-20.1433 1.66844,-0.2781 5.63096,1.2513 5.56144,2.2246 -0.0695,0.9732 -2.85023,4.2237 -3.05879,4.7798 -0.20855,0.5562 -5.31216,12.6439 -5.65975,14.8734 -0.27302,1.7512 -1.1088,4.8767 0.078,6.0635 0.69518,0.6952 0.69867,3.6199 -0.2746,3.9674 -0.97325,0.3476 -3.43398,0.7835 -4.0524,-0.1643 -0.96133,-1.4733 -3.81509,-2.302 -3.75747,-3.8319 0.078,-2.0701 -0.55943,-5.9906 -0.83915,-6.6653 -0.84082,-2.0282 -0.77025,-5.7854 -2.12976,-6.4533 -1.65446,2.6257 -0.76964,7.8111 -0.53579,12.8812 -0.20855,0.6952 -1.30541,3.1234 -1.12915,5.051 -0.0695,1.0428 -2.90289,2.9893 -3.459034,3.1283 z"
       id="path4233"
       inkscape:connector-curvature="0"
       sodipodi:nodetypes="cssssscscsssssccscssssccccc" />
  </g>
</svg>
